<?xml version="1.0" encoding="UTF-8"?>
<svg width="126px" height="145px" viewBox="0 0 126 145" version="1.1" xmlns="http://www.w3.org/2000/svg" xmlns:xlink="http://www.w3.org/1999/xlink">
    <!-- Generator: Sketch 49.1 (51147) - http://www.bohemiancoding.com/sketch -->
    <title>Oval</title>
    <desc>Created with Sketch.</desc>
    <defs></defs>
    <g id="Page-1" stroke="none" stroke-width="1" fill="none" fill-rule="evenodd">
        <g id="Desktop" transform="translate(-437.000000, -367.000000)" fill="#E7EAEB">
            <path d="M500,512 C534.793939,512 563,483.793939 563,449 C563,437.40202 554.666667,421.735354 538,402 C542.365151,419.333333 539.031818,432 528,440 C522.034523,444.326015 506.218885,435.889176 498,410 C495.744311,402.894664 496.410978,388.561331 500,367 C488.467135,374.670642 480.467135,384.003976 476,395 C471.532865,405.996024 469.532865,418.329358 470,432 C465.793014,429.324344 462.459681,425.657677 460,421 C457.540319,416.342323 456.02441,410.826414 455.452273,404.452273 C443.150758,422.552778 437,437.40202 437,449 C437,483.793939 465.206061,512 500,512 Z" id="Oval"></path>
        </g>
    </g>
</svg>