<?xml version="1.0" encoding="UTF-8"?>
<svg width="126px" height="145px" viewBox="0 0 126 145" version="1.1" xmlns="http://www.w3.org/2000/svg" xmlns:xlink="http://www.w3.org/1999/xlink">
    <!-- Generator: Sketch 49.1 (51147) - http://www.bohemiancoding.com/sketch -->
    <title>Oval</title>
    <desc>Created with Sketch.</desc>
    <defs></defs>
    <g id="Page-1" stroke="none" stroke-width="1" fill="none" fill-rule="evenodd">
        <g id="Desktop" transform="translate(-597.000000, -367.000000)" fill="#FF6969">
            <path d="M660,512 C694.793939,512 723,483.793939 723,449 C723,437.40202 714.666667,421.735354 698,402 C702.365151,419.333333 699.031818,432 688,440 C682.034523,444.326015 666.218885,435.889176 658,410 C655.744311,402.894664 656.410978,388.561331 660,367 C648.467135,374.670642 640.467135,384.003976 636,395 C631.532865,405.996024 629.532865,418.329358 630,432 C625.793014,429.324344 622.459681,425.657677 620,421 C617.540319,416.342323 616.02441,410.826414 615.452273,404.452273 C603.150758,422.552778 597,437.40202 597,449 C597,483.793939 625.206061,512 660,512 Z" id="Oval"></path>
        </g>
    </g>
</svg>